<svg width="30" height="20" viewBox="0 0 30 20" fill="none" xmlns="http://www.w3.org/2000/svg">
<rect width="30" height="20" rx="6" fill="#3F96D0"/>
<path d="M14.2913 16.924L11.1402 13.7729C11.0967 13.7294 11.0625 13.6809 11.0375 13.6273C11.0125 13.5737 11 13.5162 11 13.4549C11 13.3324 11.0414 13.226 11.1243 13.1356C11.2072 13.0452 11.3164 13 11.4519 13H18.0903C18.2259 13 18.3351 13.0456 18.4179 13.1369C18.5008 13.2281 18.5422 13.3346 18.5422 13.4563C18.5422 13.4867 18.4955 13.5923 18.4019 13.7731L15.2509 16.924C15.1785 16.9964 15.1036 17.0493 15.0263 17.0827C14.949 17.116 14.8639 17.1327 14.7711 17.1327C14.6783 17.1327 14.5933 17.116 14.5159 17.0827C14.4386 17.0493 14.3638 16.9964 14.2913 16.924Z" fill="white"/>
<path d="M14.2913 3.20871L11.1402 6.35981C11.0967 6.40328 11.0625 6.45182 11.0375 6.50542C11.0125 6.55903 11 6.61647 11 6.67774C11 6.80027 11.0414 6.90673 11.1243 6.99711C11.2072 7.0875 11.3164 7.13269 11.4519 7.13269H18.0903C18.2259 7.13269 18.3351 7.08706 18.4179 6.99581C18.5008 6.90455 18.5422 6.79808 18.5422 6.67641C18.5422 6.64598 18.4955 6.54038 18.4019 6.35961L15.2509 3.20869C15.1785 3.13626 15.1036 3.08337 15.0263 3.05004C14.949 3.01671 14.8639 3.00004 14.7711 3.00004C14.6783 3.00004 14.5933 3.01671 14.5159 3.05004C14.4386 3.08337 14.3638 3.13627 14.2913 3.20871Z" fill="white"/>
</svg>
