<svg width="239" height="44" viewBox="0 0 239 44" fill="none" xmlns="http://www.w3.org/2000/svg">
<mask id="mask0_1604_2499" style="mask-type:luminance" maskUnits="userSpaceOnUse" x="0" y="0" width="118" height="44">
<path d="M0 0H117.375V44H0V0Z" fill="white"/>
</mask>
<g mask="url(#mask0_1604_2499)">
<mask id="mask1_1604_2499" style="mask-type:luminance" maskUnits="userSpaceOnUse" x="0" y="0" width="118" height="44">
<path d="M33.2914 0H111.242C113.43 0 115.446 1.17387 116.524 3.0784C117.598 4.98294 117.566 7.31869 116.436 9.19129L101.016 34.8087C97.5785 40.5143 91.4057 44 84.7458 44H6.79556C4.60754 44 2.59121 42.8261 1.51317 40.9216C0.43912 39.0171 0.471063 36.6813 1.60101 34.8087L17.021 9.19129C20.4587 3.48566 26.6315 0 33.2914 0Z" fill="white"/>
</mask>
<g mask="url(#mask1_1604_2499)">
<path d="M-3.93701 0H121.974V44H-3.93701V0Z" fill="#3F96D0"/>
</g>
</g>
<path d="M38.87 29.3686H26.4421L24.362 34.6042H16.9229L29.1921 6.16989H36.6312L48.6184 34.6042H40.8972L38.87 29.3686ZM36.7546 23.8862L32.6825 13.3622L28.5398 23.8862H36.7546Z" fill="white"/>
<path d="M63.1047 5.92308C65.2201 5.92308 67.3002 6.35938 69.3451 7.22757C71.3899 8.10016 73.1263 9.26362 74.563 10.718L70.3675 15.6715C69.4508 14.5433 68.3447 13.653 67.0534 12.992C65.771 12.3221 64.4973 11.9872 63.2281 11.9872C60.9805 11.9872 59.1031 12.7805 57.5871 14.367C56.071 15.9447 55.313 17.8926 55.313 20.2196C55.313 22.6082 56.071 24.6002 57.5871 26.1955C59.1031 27.7953 60.9805 28.593 63.2281 28.593C64.4136 28.593 65.6476 28.3021 66.93 27.7115C68.2213 27.1122 69.3671 26.2969 70.3675 25.2612L74.5983 29.7388C73.0558 31.3033 71.2357 32.5593 69.1335 33.5112C67.0402 34.4543 64.9468 34.9215 62.8579 34.9215C58.5787 34.9215 55.0178 33.5289 52.1752 30.7436C49.3283 27.9583 47.9092 24.4812 47.9092 20.3077C47.9092 16.218 49.3547 12.7981 52.2457 10.0481C55.1456 7.29808 58.7682 5.92308 63.1047 5.92308Z" fill="white"/>
<path d="M78.1074 6.16989H90.5001C94.1315 6.16989 96.9432 7.03367 98.944 8.76124C100.954 10.48 101.958 12.9171 101.958 16.0769C101.958 19.4175 100.954 22.0088 98.944 23.851C96.9432 25.6843 94.1315 26.601 90.5001 26.601H85.335V34.6042H78.1074V6.16989ZM85.335 11.8638V20.9247H90.1299C91.7252 20.9247 92.9592 20.5325 93.8318 19.7436C94.7 18.9592 95.1363 17.8177 95.1363 16.3237C95.1363 14.8694 94.7 13.7632 93.8318 13.0096C92.9592 12.2472 91.7252 11.8638 90.1299 11.8638H85.335Z" fill="white"/>
<path d="M131.612 28.6106H143.688V34.6571H124.385V6.22277H131.612V28.6106Z" fill="#3F96D0"/>
<path d="M157.367 12.2692C160.937 12.2692 163.819 13.2917 166.005 15.3365C168.2 17.3814 169.301 20.0873 169.301 23.4455C169.301 26.8081 168.2 29.5184 166.005 31.5721C163.819 33.6302 160.937 34.6571 157.367 34.6571C153.771 34.6571 150.871 33.6302 148.676 31.5721C146.477 29.5184 145.38 26.8081 145.38 23.4455C145.38 20.0873 146.477 17.3814 148.676 15.3365C150.871 13.2917 153.771 12.2692 157.367 12.2692ZM157.367 17.8397C155.908 17.8397 154.723 18.3686 153.806 19.4263C152.898 20.484 152.449 21.8546 152.449 23.5337C152.449 25.2392 152.898 26.6142 153.806 27.6587C154.723 28.6943 155.908 29.2099 157.367 29.2099C158.799 29.2099 159.967 28.6943 160.875 27.6587C161.779 26.6142 162.232 25.2392 162.232 23.5337C162.232 21.8546 161.779 20.484 160.875 19.4263C159.967 18.3686 158.799 17.8397 157.367 17.8397Z" fill="#3F96D0"/>
<path d="M182.54 12.1282C185.537 12.1282 187.868 12.8289 189.539 14.2259C191.204 15.6142 192.051 17.5533 192.077 20.0433V34.3397H185.22V31.8189C183.774 33.7139 181.535 34.657 178.503 34.657C176.212 34.657 174.383 34.0224 173.021 32.7532C171.668 31.484 170.994 29.8357 170.994 27.7997C170.994 25.7195 171.716 24.1066 173.162 22.9519C174.616 21.8017 176.696 21.2155 179.402 21.1891H185.167V20.8542C185.167 19.7744 184.805 18.9283 184.091 18.3157C183.373 17.7075 182.311 17.399 180.901 17.399C178.926 17.399 176.745 18.0116 174.361 19.2324L172.386 14.5961C175.921 12.9523 179.305 12.1282 182.54 12.1282ZM180.672 29.915C181.773 29.915 182.743 29.6418 183.58 29.0865C184.426 28.5224 184.955 27.7953 185.167 26.9006V24.9615H180.742C178.627 24.9615 177.569 25.746 177.569 27.3061C177.569 28.1302 177.838 28.7692 178.38 29.2275C178.931 29.6859 179.693 29.915 180.672 29.915Z" fill="#3F96D0"/>
<path d="M217.603 4.23077V34.375H210.569V31.484C208.983 33.5994 206.788 34.657 203.994 34.657C200.913 34.657 198.441 33.617 196.572 31.5369C194.704 29.4479 193.77 26.7067 193.77 23.3221C193.77 19.9728 194.686 17.2845 196.52 15.2484C198.362 13.2167 200.803 12.1987 203.835 12.1987C206.735 12.1987 208.983 13.2564 210.569 15.3718V4.23077H217.603ZM202.161 27.641C203.064 28.6899 204.245 29.2099 205.704 29.2099C207.158 29.2099 208.335 28.6899 209.229 27.641C210.12 26.5833 210.569 25.2039 210.569 23.4984C210.569 21.8193 210.12 20.4487 209.229 19.391C208.335 18.3333 207.158 17.8045 205.704 17.8045C204.245 17.8045 203.064 18.3289 202.161 19.3734C201.266 20.4091 200.808 21.7841 200.786 23.4984C200.808 25.2039 201.266 26.5833 202.161 27.641Z" fill="#3F96D0"/>
<path d="M229.29 12.1635C232.507 12.1635 235.513 12.9876 238.298 14.6314L235.901 19.1795C233.195 17.7252 230.899 16.9936 229.008 16.9936C227.563 16.9936 226.84 17.496 226.84 18.492C226.84 19.0341 227.232 19.488 228.021 19.8494C228.805 20.2151 229.77 20.5501 230.912 20.8542C232.049 21.1494 233.177 21.5196 234.297 21.9647C235.425 22.4143 236.377 23.1238 237.152 24.0978C237.937 25.0761 238.333 26.266 238.333 27.6763C238.333 29.8622 237.478 31.5721 235.777 32.8061C234.072 34.0401 231.851 34.657 229.114 34.657C225.244 34.657 221.974 33.6302 219.295 31.5721L221.534 27.1122C224.094 28.9235 226.681 29.8269 229.29 29.8269C230.885 29.8269 231.688 29.3289 231.688 28.3285C231.688 27.7556 231.3 27.2796 230.524 26.9006C229.748 26.526 228.801 26.1911 227.686 25.8958C226.58 25.5917 225.469 25.2171 224.354 24.7676C223.248 24.3225 222.309 23.6306 221.534 22.6875C220.767 21.7356 220.388 20.5457 220.388 19.109C220.388 16.9143 221.208 15.2087 222.856 13.9968C224.513 12.776 226.655 12.1635 229.29 12.1635Z" fill="#3F96D0"/>
</svg>
